<svg width="149" height="40" viewBox="0 0 149 40" fill="none" xmlns="http://www.w3.org/2000/svg">
<g clip-path="url(#clip0_5389_78)">
<ellipse cx="10.4" cy="20" rx="10.4" ry="10.4959" fill="#FFA500"/>
<ellipse opacity="0.6" cx="7.06439" cy="6.10078" rx="7.06439" ry="6.10078" transform="matrix(0.834795 -0.550561 0.54352 0.839396 -3.0271 14.4007)" fill="url(#paint0_radial_5389_78)"/>
<path d="M14.9211 10.7129C13.0945 12.0225 12.4305 14.0479 13.1 15C13.7695 15.9522 15.2733 17.3096 17.1 16C18.5716 14.945 17.5545 13.6952 20.3793 9.61629C20.3793 9.61629 20.1319 9.58594 20.0095 9.57046C18.6045 9.39275 16.6014 9.50827 14.9211 10.7129Z" fill="#008000"/>
</g>
<path d="M130.095 27V15.5006H132.325L132.544 17.031H132.697C132.945 16.6812 133.229 16.3751 133.55 16.1128C133.87 15.8358 134.235 15.6245 134.643 15.4788C135.065 15.3184 135.525 15.2383 136.02 15.2383C136.691 15.2383 137.288 15.3767 137.813 15.6537C138.337 15.9306 138.746 16.3897 139.037 17.031H139.19C139.438 16.6812 139.729 16.3751 140.065 16.1128C140.4 15.8358 140.786 15.6245 141.223 15.4788C141.66 15.3184 142.134 15.2383 142.644 15.2383C143.329 15.2383 143.934 15.3622 144.459 15.6099C144.983 15.8577 145.399 16.2658 145.705 16.8342C146.011 17.4026 146.164 18.1605 146.164 19.1078V27H143.497V19.6544C143.497 19.2609 143.453 18.933 143.366 18.6706C143.278 18.3937 143.154 18.1824 142.994 18.0366C142.848 17.8763 142.659 17.7597 142.426 17.6868C142.207 17.6139 141.967 17.5775 141.704 17.5775C141.282 17.5775 140.903 17.6941 140.567 17.9273C140.232 18.1605 139.963 18.4811 139.758 18.8892C139.569 19.2973 139.474 19.771 139.474 20.3103V27H136.807V19.6544C136.807 19.2609 136.763 18.933 136.676 18.6706C136.588 18.3937 136.465 18.1824 136.304 18.0366C136.159 17.8763 135.969 17.7597 135.736 17.6868C135.517 17.6139 135.277 17.5775 135.014 17.5775C134.592 17.5775 134.206 17.6941 133.856 17.9273C133.521 18.1605 133.251 18.4811 133.047 18.8892C132.857 19.2973 132.763 19.771 132.763 20.3103V27H130.095Z" fill="#131313"/>
<path d="M122.858 27V15.5006H125.088L125.307 17.3152H125.46C125.605 16.9508 125.78 16.6156 125.984 16.3095C126.203 15.9889 126.48 15.7338 126.815 15.5443C127.15 15.3403 127.558 15.2383 128.039 15.2383C128.272 15.2383 128.484 15.2601 128.673 15.3039C128.877 15.3476 129.03 15.3913 129.132 15.435V17.9492H128.323C127.872 17.9492 127.471 18.0147 127.121 18.1459C126.771 18.2625 126.472 18.452 126.225 18.7143C125.992 18.9767 125.817 19.3046 125.7 19.6981C125.583 20.0916 125.525 20.5507 125.525 21.0754V27H122.858Z" fill="#131313"/>
<path d="M114.345 27.2624C114.024 27.2624 113.652 27.2186 113.23 27.1312C112.822 27.0583 112.421 26.9126 112.027 26.6939C111.648 26.4753 111.335 26.1547 111.087 25.732C110.839 25.2948 110.716 24.7264 110.716 24.0268C110.716 23.2398 110.89 22.5912 111.24 22.0811C111.59 21.5564 112.078 21.1483 112.705 20.8568C113.346 20.5507 114.104 20.3394 114.979 20.2228C115.868 20.0916 116.837 20.026 117.886 20.026V19.086C117.886 18.7508 117.835 18.452 117.733 18.1896C117.631 17.9273 117.442 17.7233 117.165 17.5775C116.903 17.4172 116.502 17.337 115.962 17.337C115.423 17.337 115.001 17.4026 114.694 17.5338C114.388 17.665 114.177 17.8253 114.06 18.0147C113.944 18.2042 113.886 18.401 113.886 18.605V18.9111H111.306C111.291 18.8382 111.284 18.7653 111.284 18.6925C111.284 18.6196 111.284 18.5321 111.284 18.4301C111.284 17.7743 111.481 17.2059 111.874 16.7249C112.268 16.2439 112.814 15.8796 113.514 15.6318C114.213 15.3695 115.022 15.2383 115.941 15.2383C116.99 15.2383 117.85 15.384 118.52 15.6755C119.205 15.967 119.715 16.3824 120.051 16.9217C120.386 17.4609 120.553 18.1168 120.553 18.8892V24.311C120.553 24.5879 120.634 24.7847 120.794 24.9013C120.954 25.0179 121.129 25.0762 121.319 25.0762H122.018V26.9126C121.872 26.9709 121.661 27.0364 121.384 27.1093C121.107 27.1968 120.765 27.2405 120.357 27.2405C119.978 27.2405 119.635 27.1749 119.329 27.0437C119.038 26.9271 118.79 26.7522 118.586 26.519C118.382 26.2859 118.236 26.0089 118.149 25.6883H118.017C117.77 25.9944 117.471 26.2713 117.121 26.519C116.786 26.7522 116.385 26.9344 115.919 27.0656C115.467 27.1968 114.942 27.2624 114.345 27.2624ZM115.154 25.0762C115.591 25.0762 115.977 25.0106 116.312 24.8794C116.662 24.7482 116.946 24.566 117.165 24.3329C117.398 24.0997 117.573 23.8155 117.69 23.4802C117.821 23.145 117.886 22.7807 117.886 22.3871V21.8625C117.085 21.8625 116.341 21.9135 115.656 22.0155C114.986 22.1175 114.447 22.307 114.039 22.5839C113.645 22.8608 113.448 23.2543 113.448 23.7644C113.448 24.0268 113.507 24.26 113.623 24.464C113.754 24.6535 113.944 24.8065 114.192 24.9231C114.454 25.0251 114.775 25.0762 115.154 25.0762Z" fill="#131313"/>
<path d="M99.6566 27V12.0027H110.435V14.4294H102.499V18.452H109.648V20.8786H102.499V27H99.6566Z" fill="#131313"/>
<path d="M92.7855 27.2624C91.5612 27.2624 90.541 27.051 89.7248 26.6284C88.9087 26.1911 88.2965 25.528 87.8884 24.6389C87.4804 23.7499 87.2763 22.6203 87.2763 21.2503C87.2763 19.8657 87.4804 18.7362 87.8884 17.8617C88.2965 16.9727 88.9087 16.3168 89.7248 15.8941C90.541 15.4569 91.5612 15.2383 92.7855 15.2383C93.8932 15.2383 94.8187 15.4496 95.562 15.8723C96.3199 16.2804 96.8883 16.9144 97.2672 17.7743C97.6462 18.6342 97.8356 19.7491 97.8356 21.1191V21.9062H90.009C90.0382 22.6203 90.1475 23.2252 90.337 23.7207C90.5264 24.2017 90.8179 24.566 91.2115 24.8138C91.6195 25.047 92.1515 25.1636 92.8074 25.1636C93.1426 25.1636 93.456 25.1199 93.7474 25.0324C94.0389 24.945 94.294 24.8138 94.5126 24.6389C94.7312 24.4494 94.8988 24.2163 95.0154 23.9393C95.1466 23.6624 95.2122 23.3418 95.2122 22.9774H97.8356C97.8356 23.7061 97.7045 24.3401 97.4421 24.8794C97.1943 25.4187 96.8373 25.8632 96.3709 26.213C95.9191 26.5628 95.3871 26.8251 94.775 27C94.1628 27.1749 93.4997 27.2624 92.7855 27.2624ZM90.0528 20.026H95.0592C95.0592 19.5451 95.0009 19.137 94.8843 18.8018C94.7822 18.4666 94.6292 18.1896 94.4252 17.971C94.2357 17.7524 94.0025 17.5994 93.7256 17.5119C93.4487 17.4099 93.1353 17.3589 92.7855 17.3589C92.2171 17.3589 91.7361 17.4536 91.3426 17.6431C90.9637 17.8326 90.6722 18.1241 90.4682 18.5176C90.2641 18.9111 90.1256 19.4139 90.0528 20.026Z" fill="#131313"/>
<path d="M77.5134 30.9789C77.0033 30.9789 76.5223 30.8769 76.0705 30.6728C75.6187 30.4688 75.2543 30.1627 74.9774 29.7546C74.7005 29.3611 74.562 28.8728 74.562 28.2899C74.562 27.6486 74.7442 27.1458 75.1086 26.7814C75.4875 26.4024 75.9029 26.1182 76.3547 25.9288C76.0195 25.7539 75.7426 25.5207 75.524 25.2292C75.3199 24.9377 75.2179 24.5879 75.2179 24.1798C75.2179 23.626 75.4219 23.1887 75.83 22.8681C76.2381 22.5329 76.7045 22.3143 77.2292 22.2122C76.6899 21.877 76.2746 21.4471 75.9831 20.9224C75.7061 20.3977 75.5677 19.8001 75.5677 19.1297C75.5677 18.3281 75.7572 17.6431 76.1361 17.0747C76.5296 16.4917 77.098 16.0399 77.8413 15.7192C78.5846 15.3986 79.481 15.2383 80.5304 15.2383C80.953 15.2383 81.3611 15.2674 81.7546 15.3257C82.1481 15.384 82.5052 15.4715 82.8259 15.5881C83.336 15.282 83.6858 14.9395 83.8752 14.5606C84.0647 14.167 84.1667 13.8464 84.1813 13.5986H86.7829C86.7829 14.1087 86.6808 14.5606 86.4768 14.9541C86.2873 15.3476 86.0177 15.6755 85.6679 15.9379C85.3181 16.1856 84.8955 16.3678 84.3999 16.4844C84.7643 16.8051 85.0412 17.1913 85.2307 17.6431C85.4201 18.0949 85.5149 18.5904 85.5149 19.1297C85.5149 19.9313 85.3254 20.6236 84.9465 21.2066C84.5821 21.7896 84.0356 22.2414 83.3068 22.562C82.5927 22.8827 81.7109 23.043 80.6615 23.043H78.8907C78.5846 23.043 78.3442 23.1086 78.1693 23.2398C78.0089 23.3709 77.9288 23.5531 77.9288 23.7863C77.9288 23.9758 78.0017 24.1434 78.1474 24.2891C78.3077 24.4349 78.5263 24.5077 78.8033 24.5077H83.8315C84.6914 24.5077 85.3983 24.7919 85.9521 25.3604C86.5205 25.9142 86.8047 26.6284 86.8047 27.5028C86.8047 28.1587 86.6298 28.749 86.28 29.2736C85.9448 29.7983 85.4712 30.2137 84.859 30.5198C84.2469 30.8258 83.5327 30.9789 82.7165 30.9789H77.5134ZM78.4753 29.055H82.6947C82.9716 29.055 83.2121 29.004 83.4161 28.902C83.6347 28.8145 83.8024 28.6834 83.919 28.5085C84.0501 28.3336 84.1157 28.1368 84.1157 27.9182C84.1157 27.5393 83.9918 27.2551 83.7441 27.0656C83.5109 26.8761 83.2194 26.7814 82.8696 26.7814H78.4753C78.1255 26.7814 77.834 26.8834 77.6009 27.0875C77.3677 27.3061 77.2511 27.583 77.2511 27.9182C77.2511 28.2534 77.3604 28.5231 77.579 28.7271C77.8122 28.9457 78.111 29.055 78.4753 29.055ZM80.5522 21.1629C81.3247 21.1629 81.9004 20.988 82.2793 20.6382C82.6728 20.2738 82.8696 19.771 82.8696 19.1297C82.8696 18.4884 82.6728 17.9929 82.2793 17.6431C81.9004 17.2933 81.3247 17.1184 80.5522 17.1184C79.7798 17.1184 79.1968 17.2933 78.8033 17.6431C78.4243 17.9929 78.2348 18.4884 78.2348 19.1297C78.2348 19.5524 78.315 19.9167 78.4753 20.2228C78.6502 20.5289 78.9053 20.7621 79.2405 20.9224C79.5903 21.0827 80.0275 21.1629 80.5522 21.1629Z" fill="#131313"/>
<path d="M63.5276 27V15.5006H65.7575L65.9761 17.031H66.1292C66.3915 16.6812 66.6976 16.3751 67.0474 16.1128C67.4117 15.8358 67.8198 15.6245 68.2716 15.4788C68.738 15.3184 69.2481 15.2383 69.802 15.2383C70.5307 15.2383 71.172 15.3695 71.7258 15.6318C72.2942 15.8941 72.7388 16.3168 73.0594 16.8998C73.38 17.4828 73.5404 18.2625 73.5404 19.239V27H70.8513V19.72C70.8513 19.3119 70.8003 18.9767 70.6983 18.7143C70.6109 18.4374 70.4724 18.2188 70.2829 18.0585C70.108 17.8836 69.8894 17.7597 69.6271 17.6868C69.3647 17.6139 69.0732 17.5775 68.7526 17.5775C68.2716 17.5775 67.8344 17.6941 67.4409 17.9273C67.0619 18.1605 66.7559 18.4811 66.5227 18.8892C66.3041 19.2973 66.1947 19.771 66.1947 20.3103V27H63.5276Z" fill="#131313"/>
<path d="M55.0142 27.2624C54.6936 27.2624 54.3219 27.2186 53.8993 27.1312C53.4912 27.0583 53.0904 26.9126 52.6968 26.6939C52.3179 26.4753 52.0046 26.1547 51.7568 25.732C51.509 25.2948 51.3851 24.7264 51.3851 24.0268C51.3851 23.2398 51.56 22.5912 51.9098 22.0811C52.2596 21.5564 52.7479 21.1483 53.3746 20.8568C54.0159 20.5507 54.7737 20.3394 55.6482 20.2228C56.5373 20.0916 57.5065 20.026 58.5558 20.026V19.086C58.5558 18.7508 58.5048 18.452 58.4028 18.1896C58.3008 17.9273 58.1113 17.7233 57.8344 17.5775C57.5721 17.4172 57.1713 17.337 56.632 17.337C56.0927 17.337 55.6701 17.4026 55.364 17.5338C55.0579 17.665 54.8466 17.8253 54.73 18.0147C54.6134 18.2042 54.5551 18.401 54.5551 18.605V18.9111H51.9754C51.9608 18.8382 51.9535 18.7653 51.9535 18.6925C51.9535 18.6196 51.9535 18.5321 51.9535 18.4301C51.9535 17.7743 52.1503 17.2059 52.5438 16.7249C52.9373 16.2439 53.4839 15.8796 54.1835 15.6318C54.883 15.3695 55.6919 15.2383 56.6101 15.2383C57.6595 15.2383 58.5194 15.384 59.1898 15.6755C59.8749 15.967 60.385 16.3824 60.7202 16.9217C61.0554 17.4609 61.223 18.1168 61.223 18.8892V24.311C61.223 24.5879 61.3032 24.7847 61.4635 24.9013C61.6238 25.0179 61.7987 25.0762 61.9882 25.0762H62.6878V26.9126C62.542 26.9709 62.3307 27.0364 62.0538 27.1093C61.7768 27.1968 61.4343 27.2405 61.0262 27.2405C60.6473 27.2405 60.3048 27.1749 59.9987 27.0437C59.7072 26.9271 59.4595 26.7522 59.2554 26.519C59.0514 26.2859 58.9056 26.0089 58.8182 25.6883H58.687C58.4393 25.9944 58.1405 26.2713 57.7907 26.519C57.4555 26.7522 57.0547 26.9344 56.5883 27.0656C56.1365 27.1968 55.6118 27.2624 55.0142 27.2624ZM55.8231 25.0762C56.2603 25.0762 56.6466 25.0106 56.9818 24.8794C57.3316 24.7482 57.6158 24.566 57.8344 24.3329C58.0676 24.0997 58.2425 23.8155 58.3591 23.4802C58.4903 23.145 58.5558 22.7807 58.5558 22.3871V21.8625C57.7542 21.8625 57.0109 21.9135 56.3259 22.0155C55.6555 22.1175 55.1162 22.307 54.7081 22.5839C54.3146 22.8608 54.1179 23.2543 54.1179 23.7644C54.1179 24.0268 54.1762 24.26 54.2928 24.464C54.4239 24.6535 54.6134 24.8065 54.8612 24.9231C55.1235 25.0251 55.4442 25.0762 55.8231 25.0762Z" fill="#131313"/>
<path d="M45.0388 27V15.5006H47.2688L47.4874 17.3152H47.6404C47.7862 16.9508 47.9611 16.6156 48.1651 16.3095C48.3837 15.9889 48.6606 15.7338 48.9959 15.5443C49.3311 15.3403 49.7392 15.2383 50.2201 15.2383C50.4533 15.2383 50.6647 15.2601 50.8541 15.3039C51.0582 15.3476 51.2112 15.3913 51.3132 15.435V17.9492H50.5043C50.0525 17.9492 49.6517 18.0147 49.3019 18.1459C48.9521 18.2625 48.6534 18.452 48.4056 18.7143C48.1724 18.9767 47.9975 19.3046 47.8809 19.6981C47.7643 20.0916 47.706 20.5507 47.706 21.0754V27H45.0388Z" fill="#131313"/>
<path d="M35.748 27.2623C34.1886 27.2623 32.8404 26.9854 31.7036 26.4316C30.5668 25.8632 29.6923 25.0033 29.0801 23.8519C28.4826 22.7005 28.1838 21.2503 28.1838 19.5013C28.1838 17.7378 28.4826 16.2876 29.0801 15.1508C29.6923 13.9994 30.5668 13.1468 31.7036 12.593C32.8404 12.0246 34.1886 11.7404 35.748 11.7404C37.3221 11.7404 38.6703 12.0246 39.7925 12.593C40.9293 13.1468 41.7965 13.9994 42.3941 15.1508C43.0062 16.2876 43.3123 17.7378 43.3123 19.5013C43.3123 21.2503 43.0062 22.7005 42.3941 23.8519C41.7965 25.0033 40.9293 25.8632 39.7925 26.4316C38.6703 26.9854 37.3221 27.2623 35.748 27.2623ZM35.748 24.8575C36.5059 24.8575 37.1691 24.7482 37.7375 24.5296C38.3205 24.311 38.8087 23.9903 39.2022 23.5677C39.5957 23.1304 39.8945 22.5985 40.0986 21.9717C40.3026 21.3305 40.4046 20.5944 40.4046 19.7637V19.2827C40.4046 18.4374 40.3026 17.6941 40.0986 17.0528C39.8945 16.4115 39.5957 15.8796 39.2022 15.4569C38.8087 15.0196 38.3205 14.6917 37.7375 14.4731C37.1691 14.2545 36.5059 14.1452 35.748 14.1452C34.9902 14.1452 34.3197 14.2545 33.7367 14.4731C33.1683 14.6917 32.6874 15.0196 32.2939 15.4569C31.9003 15.8796 31.6016 16.4115 31.3975 17.0528C31.208 17.6941 31.1133 18.4374 31.1133 19.2827V19.7637C31.1133 20.5944 31.208 21.3305 31.3975 21.9717C31.6016 22.5985 31.9003 23.1304 32.2939 23.5677C32.6874 23.9903 33.1683 24.311 33.7367 24.5296C34.3197 24.7482 34.9902 24.8575 35.748 24.8575Z" fill="#131313"/>
<defs>
<radialGradient id="paint0_radial_5389_78" cx="0" cy="0" r="1" gradientUnits="userSpaceOnUse" gradientTransform="translate(7.06439 6.10078) rotate(90) scale(6.10078 7.06439)">
<stop stop-color="white"/>
<stop offset="1" stop-color="white" stop-opacity="0"/>
</radialGradient>
<clipPath id="clip0_5389_78">
<rect width="20.8" height="20.9919" fill="white" transform="translate(0 9.50406)"/>
</clipPath>
</defs>
</svg>

