<svg width="16" height="16" viewBox="0 0 16 16" fill="none" xmlns="http://www.w3.org/2000/svg">
<path d="M6.00001 3.33333H4.66668C4.31305 3.33333 3.97392 3.47381 3.72387 3.72386C3.47382 3.97391 3.33334 4.31304 3.33334 4.66667V12.6667C3.33334 13.0203 3.47382 13.3594 3.72387 13.6095C3.97392 13.8595 4.31305 14 4.66668 14H11.3333C11.687 14 12.0261 13.8595 12.2762 13.6095C12.5262 13.3594 12.6667 13.0203 12.6667 12.6667V4.66667C12.6667 4.31304 12.5262 3.97391 12.2762 3.72386C12.0261 3.47381 11.687 3.33333 11.3333 3.33333H10M6.00001 3.33333C6.00001 2.97971 6.14049 2.64057 6.39053 2.39052C6.64058 2.14048 6.97972 2 7.33334 2H8.66668C9.0203 2 9.35944 2.14048 9.60949 2.39052C9.85953 2.64057 10 2.97971 10 3.33333M6.00001 3.33333C6.00001 3.68696 6.14049 4.02609 6.39053 4.27614C6.64058 4.52619 6.97972 4.66667 7.33334 4.66667H8.66668C9.0203 4.66667 9.35944 4.52619 9.60949 4.27614C9.85953 4.02609 10 3.68696 10 3.33333M6.00001 11.3333V8.66667M8.00001 11.3333V10.6667M10 11.3333V10" stroke="#7D7D7D" stroke-width="1.25" stroke-linecap="round" stroke-linejoin="round"/>
</svg>
